<svg height="512pt" viewBox="0 0 512 511" width="512pt" xmlns="http://www.w3.org/2000/svg"><path d="m508.417969 348.054688h-340.390625c-1.976563 0-3.582032-1.605469-3.582032-3.582032v-340.390625c0-1.980469-1.601562-3.582031-3.578124-3.582031h-40.851563c-1.976563 0-3.578125 1.601562-3.578125 3.582031v388.402344c0 1.976563 1.601562 3.582031 3.578125 3.582031h388.402344c1.976562 0 3.582031-1.605468 3.582031-3.582031v-40.851563c0-1.976562-1.601562-3.578124-3.582031-3.578124zm0 0" fill="#dfebfa"/><path d="m145.59375 370.332031c-1.976562 0-3.582031-1.601562-3.582031-3.578125v-366.253906h-21.996094c-1.976563 0-3.578125 1.601562-3.578125 3.578125v388.40625c0 1.976563 1.601562 3.578125 3.578125 3.578125h388.402344c1.976562 0 3.582031-1.601562 3.582031-3.578125v-22.152344zm0 0" fill="#b1dbfc"/><path d="m165.53125 347.03125c-.667969-.648438-1.082031-1.554688-1.082031-2.558594v-340.390625c0-1.980469-1.605469-3.582031-3.582031-3.582031h-40.851563c-1.976563 0-3.578125 1.601562-3.578125 3.582031v388.402344c0 .96875.390625 1.847656 1.015625 2.492187l48.078125-47.941406zm0 0" fill="#b1dbfc"/><path d="m116.507812 393.195312c.039063.191407.101563.375.171876.554688.011718.03125.015624.070312.03125.105469.175781.417969.429687.800781.742187 1.121093l25.695313-25.621093c-.695313-.65625-1.136719-1.574219-1.136719-2.601563v-366.253906h-21.996094c-.988281 0-1.882813.402344-2.53125 1.050781-.164063.160157-.308594.339844-.4375.527344-.226563.335937-.386719.71875-.488281 1.121094-.074219.285156-.121094.574219-.121094.882812v388.402344.011719c0 .238281.027344.472656.070312.699218zm0 0" fill="#8cc9f9"/><path d="m3.582031 164.886719h340.390625c1.976563 0 3.582032 1.601562 3.582032 3.582031v340.390625c0 1.976563 1.601562 3.582031 3.578124 3.582031h40.851563c1.976563 0 3.578125-1.605468 3.578125-3.582031v-388.402344c0-1.980469-1.601562-3.582031-3.578125-3.582031h-388.402344c-1.976562 0-3.582031 1.601562-3.582031 3.582031v40.851563c0 1.976562 1.601562 3.578125 3.582031 3.578125zm0 0" fill="#b1dbfc"/><path d="m378.949219 483.96875c-1.976563 0-3.582031-1.605469-3.582031-3.582031v-340.390625c0-1.976563-1.601563-3.582032-3.582032-3.582032h-340.390625c-1.976562 0-3.578125-1.601562-3.578125-3.578124v-15.960938h-24.234375c-1.976562 0-3.582031 1.605469-3.582031 3.582031v40.851563c0 1.976562 1.605469 3.578125 3.582031 3.578125h340.390625c1.976563 0 3.582032 1.601562 3.582032 3.582031v340.390625c0 1.976563 1.601562 3.582031 3.578124 3.582031h40.851563c1.976563 0 3.582031-1.605468 3.582031-3.582031v-24.890625zm0 0" fill="#8cc9f9"/><path d="m346.46875 165.910156c.667969.648438 1.082031 1.554688 1.082031 2.558594v340.390625c0 1.980469 1.605469 3.582031 3.582031 3.582031h40.851563c1.976563 0 3.578125-1.601562 3.578125-3.582031v-388.402344c0-.972656-.390625-1.851562-1.015625-2.496093l-48.078125 47.945312zm0 0" fill="#dfebfa"/><path d="m395.5625 508.859375v-24.890625h-16.613281c-1.976563 0-3.582031-1.605469-3.582031-3.582031v-340.390625c0-.816406-.285157-1.5625-.746094-2.164063l-28.152344 28.074219v.003906c.328125.320313.59375.699219.78125 1.125.003906.007813.007812.015625.011719.023438.082031.191406.140625.394531.191406.601562.007813.027344.019531.050782.023437.078125.050782.238281.074219.480469.074219.730469v340.390625c0 1.65625 1.128907 3.03125 2.652344 3.445313.296875.078124.605469.136718.929687.136718h40.851563c.246094 0 .488281-.027344.71875-.074218 1.632813-.335938 2.859375-1.777344 2.859375-3.507813zm0 0" fill="#b1dbfc"/><g fill="#8cc9f9"><path d="m413.09375 107.128906c-1.980469 0-3.957031-.753906-5.464844-2.261718-3.019531-3.019532-3.019531-7.910157 0-10.929688l.183594-.179688c3.015625-3.019531 7.90625-3.019531 10.925781 0 3.019531 3.015626 3.019531 7.90625 0 10.925782l-.183593.183594c-1.507813 1.507812-3.484376 2.261718-5.460938 2.261718zm0 0"/><path d="m436.003906 84.214844c-1.976562 0-3.953125-.753906-5.464844-2.261719-3.015624-3.015625-3.015624-7.910156 0-10.925781l.328126-.328125c3.015624-3.015625 7.90625-3.015625 10.925781 0 3.019531 3.019531 3.019531 7.910156 0 10.929687l-.324219.324219c-1.507812 1.507813-3.488281 2.261719-5.464844 2.261719zm23.054688-23.054688c-1.976563 0-3.957032-.753906-5.464844-2.261718-3.015625-3.019532-3.015625-7.910157 0-10.929688l.328125-.324219c3.015625-3.015625 7.90625-3.015625 10.925781 0 3.015625 3.015625 3.015625 7.910157 0 10.925781l-.324218.328126c-1.511719 1.507812-3.488282 2.261718-5.464844 2.261718zm0 0"/><path d="m482.113281 38.105469c-1.976562 0-3.957031-.753907-5.464843-2.261719-3.015626-3.019531-3.015626-7.910156 0-10.929688l.183593-.179687c3.015625-3.019531 7.90625-3.019531 10.925781 0 3.019532 3.015625 3.019532 7.90625 0 10.925781l-.183593.183594c-1.507813 1.507812-3.484375 2.261719-5.460938 2.261719zm0 0"/><path d="m197.308594 322.925781c-1.976563 0-3.957032-.753906-5.464844-2.261719-3.015625-3.015624-3.015625-7.910156 0-10.925781l.183594-.183593c3.015625-3.015626 7.910156-3.015626 10.925781 0 3.019531 3.015624 3.019531 7.910156 0 10.925781l-.179687.183593c-1.511719 1.507813-3.488282 2.261719-5.464844 2.261719zm0 0"/><path d="m220.644531 299.589844c-1.980469 0-3.957031-.753906-5.464843-2.261719-3.019532-3.019531-3.019532-7.910156 0-10.929687l.332031-.328126c3.015625-3.019531 7.910156-3.019531 10.925781 0 3.019531 3.015626 3.019531 7.90625 0 10.925782l-.332031.332031c-1.507813 1.507813-3.484375 2.261719-5.460938 2.261719zm23.484375-23.484375c-1.980468 0-3.960937-.757813-5.46875-2.269531-3.015625-3.019532-3.011718-7.910157.007813-10.925782l.332031-.332031c3.019531-3.015625 7.910156-3.011719 10.925781.007813 3.015625 3.019531 3.011719 7.914062-.007812 10.929687l-.332031.328125c-1.507813 1.507812-3.484376 2.261719-5.457032 2.261719zm23.484375-23.488281c-1.976562 0-3.953125-.75-5.460937-2.257813-3.019532-3.015625-3.023438-7.90625-.007813-10.925781l.332031-.332032c3.011719-3.019531 7.90625-3.023437 10.925782-.007812 3.019531 3.015625 3.023437 7.90625.007812 10.925781l-.332031.332031c-1.507813 1.511719-3.488281 2.265626-5.464844 2.265626zm23.484375-23.484376c-1.980468 0-3.960937-.753906-5.46875-2.265624-3.015625-3.019532-3.011718-7.914063.007813-10.929688l.332031-.328125c3.019531-3.015625 7.910156-3.011719 10.925781.007813 3.015625 3.019531 3.011719 7.910156-.007812 10.925781l-.332031.332031c-1.507813 1.503906-3.484376 2.257812-5.457032 2.257812zm0 0"/><path d="m314.578125 205.648438c-1.976563 0-3.953125-.757813-5.460937-2.265626-3.019532-3.015624-3.019532-7.90625 0-10.925781l.183593-.183593c3.015625-3.015626 7.90625-3.015626 10.925781 0 3.015626 3.019531 3.015626 7.910156 0 10.929687l-.183593.179687c-1.507813 1.511719-3.484375 2.265626-5.464844 2.265626zm0 0"/></g></svg>