<svg height="512pt" viewBox="0 -64 512 512" width="512pt" xmlns="http://www.w3.org/2000/svg"><g fill="#8cc9f9"><path d="m256 384.296875c-4.265625 0-7.726562-3.460937-7.726562-7.726563v-28.898437c0-4.269531 3.460937-7.726563 7.726562-7.726563s7.726562 3.460938 7.726562 7.726563v28.898437c0 4.265626-3.460937 7.726563-7.726562 7.726563zm0 0"/><path d="m256 316.308594c-4.265625 0-7.726562-3.460938-7.726562-7.726563v-28.898437c0-4.269532 3.460937-7.726563 7.726562-7.726563s7.726562 3.457031 7.726562 7.726563v28.898437c0 4.265625-3.460937 7.726563-7.726562 7.726563zm0 0"/><path d="m256 248.316406c-4.265625 0-7.726562-3.457031-7.726562-7.722656v-28.898438c0-4.269531 3.460937-7.726562 7.726562-7.726562s7.726562 3.457031 7.726562 7.726562v28.898438c0 4.265625-3.460937 7.722656-7.726562 7.722656zm0 0"/><path d="m256 180.328125c-4.265625 0-7.726562-3.457031-7.726562-7.726563v-28.898437c0-4.265625 3.460937-7.722656 7.726562-7.722656s7.726562 3.457031 7.726562 7.722656v28.898437c0 4.269532-3.460937 7.726563-7.726562 7.726563zm0 0"/><path d="m256 112.339844c-4.265625 0-7.726562-3.457032-7.726562-7.726563v-28.898437c0-4.265625 3.460937-7.726563 7.726562-7.726563s7.726562 3.460938 7.726562 7.726563v28.898437c0 4.269531-3.460937 7.726563-7.726562 7.726563zm0 0"/><path d="m256 44.351562c-4.265625 0-7.726562-3.460937-7.726562-7.726562v-28.898438c0-4.269531 3.460937-7.726562 7.726562-7.726562s7.726562 3.460938 7.726562 7.726562v28.898438c0 4.265625-3.460937 7.726562-7.726562 7.726562zm0 0"/></g><path d="m502.796875 69.980469h-185.5625c-5.082031 0-9.203125 4.117187-9.203125 9.203125v225.929687c0 5.082031 4.121094 9.203125 9.203125 9.203125h185.5625c5.082031 0 9.203125-4.121094 9.203125-9.203125v-225.929687c0-5.085938-4.121094-9.203125-9.203125-9.203125zm0 0" fill="#23a8fe"/><path d="m338.9375 305.113281v-225.929687c0-5.085938 4.121094-9.203125 9.203125-9.203125h-30.902344c-5.085937 0-9.203125 4.117187-9.203125 9.203125v225.929687c0 5.082031 4.117188 9.203125 9.203125 9.203125h30.902344c-5.082031 0-9.203125-4.121094-9.203125-9.203125zm0 0" fill="#0193fa"/><path d="m512 305.113281v-43.800781l-33.246094-48c-2.371094-3.460938-7.480468-3.460938-9.851562 0l-35.207032 48.410156 36.007813 52.59375h33.09375c5.082031 0 9.203125-4.121094 9.203125-9.203125zm0 0" fill="#43cb8e"/><path d="m467.441406 267.765625c-2.476562-3.621094-2.410156-8.410156.171875-11.960937l20.777344-28.574219-9.636719-13.917969c-2.371094-3.460938-7.480468-3.460938-9.851562 0l-35.207032 48.410156 36.007813 52.59375h29.613281zm0 0" fill="#00ba66"/><path d="m456.445312 165.96875c0 12.453125-10.09375 22.550781-22.546874 22.550781-12.453126 0-22.550782-10.097656-22.550782-22.550781s10.097656-22.546875 22.550782-22.546875c12.453124 0 22.546874 10.09375 22.546874 22.546875zm0 0" fill="#fee55a"/><path d="m9.203125 69.980469h185.5625c5.082031 0 9.203125 4.117187 9.203125 9.203125v225.929687c0 5.082031-4.121094 9.203125-9.203125 9.203125h-185.5625c-5.082031 0-9.203125-4.121094-9.203125-9.203125v-225.929687c0-5.085938 4.121094-9.203125 9.203125-9.203125zm0 0" fill="#23a8fe"/><path d="m30.90625 305.113281v-225.929687c0-5.085938 4.121094-9.203125 9.203125-9.203125h-30.90625c-5.082031 0-9.203125 4.117187-9.203125 9.203125v225.929687c0 5.082031 4.121094 9.203125 9.203125 9.203125h30.90625c-5.082031 0-9.203125-4.121094-9.203125-9.203125zm0 0" fill="#0193fa"/><path d="m0 305.113281v-43.800781l33.246094-48c2.371094-3.460938 7.480468-3.460938 9.851562 0l35.207032 48.410156-36.007813 52.59375h-33.09375c-5.082031 0-9.203125-4.121094-9.203125-9.203125zm0 0" fill="#43cb8e"/><path d="m29.609375 305.113281v-36.601562c0-4.6875 1.429687-9.265625 4.101563-13.117188l19.507812-28.164062-10.121094-13.917969c-2.367187-3.460938-7.476562-3.460938-9.847656 0l-33.25 48v43.800781c0 5.082031 4.121094 9.203125 9.203125 9.203125h29.609375c-5.082031 0-9.203125-4.121094-9.203125-9.203125zm0 0" fill="#00ba66"/><path d="m100.652344 165.96875c0 12.453125-10.097656 22.550781-22.550782 22.550781-12.453124 0-22.546874-10.097656-22.546874-22.550781s10.09375-22.546875 22.546874-22.546875c12.453126 0 22.550782 10.09375 22.550782 22.546875zm0 0" fill="#fee55a"/><path d="m442.253906 165.96875c0-6.472656 2.730469-12.300781 7.097656-16.414062-4.039062-3.800782-9.472656-6.132813-15.453124-6.132813-12.453126 0-22.550782 10.09375-22.550782 22.546875s10.097656 22.550781 22.550782 22.550781c5.980468 0 11.414062-2.335937 15.453124-6.136719-4.367187-4.113281-7.097656-9.941406-7.097656-16.414062zm0 0" fill="#ffd301"/><path d="m86.460938 165.96875c0-6.472656 2.726562-12.300781 7.09375-16.414062-4.035157-3.800782-9.46875-6.132813-15.453126-6.132813-12.453124 0-22.546874 10.09375-22.546874 22.546875s10.09375 22.550781 22.546874 22.550781c5.984376 0 11.417969-2.335937 15.453126-6.136719-4.367188-4.113281-7.09375-9.941406-7.09375-16.414062zm0 0" fill="#ffd301"/><path d="m149.597656 168.972656 54.371094 79.492188v56.648437c0 5.082031-4.121094 9.203125-9.203125 9.203125h-154.53125l99.511719-145.34375c2.371094-3.460937 7.480468-3.460937 9.851562 0zm0 0" fill="#43cb8e"/><path d="m149.597656 168.972656c-2.371094-3.460937-7.480468-3.460937-9.851562 0l-99.511719 145.34375h29.613281l89.625-130.90625zm0 0" fill="#00ba66"/><path d="m362.402344 168.972656-54.371094 79.492188v56.648437c0 5.082031 4.121094 9.203125 9.203125 9.203125h154.53125l-99.511719-145.34375c-2.371094-3.460937-7.480468-3.460937-9.851562 0zm0 0" fill="#43cb8e"/><path d="m337.644531 305.113281v-50.535156c0-3.984375 1.203125-7.875 3.453125-11.160156l41.042969-60.007813-9.886719-14.4375c-2.371094-3.460937-7.480468-3.460937-9.851562 0l-54.367188 79.492188v56.648437c0 5.082031 4.117188 9.203125 9.203125 9.203125h29.609375c-5.082031 0-9.203125-4.121094-9.203125-9.203125zm0 0" fill="#00ba66"/></svg>